<svg width="454" height="90" viewBox="0 0 454 90" fill="none" xmlns="http://www.w3.org/2000/svg">
<path d="M53.9375 22.2344C53.9375 25.4844 53.4219 28.5781 52.3906 31.5156C51.3594 34.4531 49.875 36.9062 47.9375 38.875C46.75 40.0938 45.4375 41.2188 44 42.25C42.5938 43.2812 41.0312 44.1562 39.3125 44.875C37.5938 45.5938 35.7188 46.1562 33.6875 46.5625C31.6875 46.9688 29.4375 47.1719 26.9375 47.1719H17.75V70H0.21875V0.203125H27.3125C31.3438 0.203125 34.8125 0.578125 37.7188 1.32812C40.6562 2.04687 43.3125 3.20312 45.6875 4.79688C48.3125 6.54688 50.3438 8.89062 51.7812 11.8281C53.2188 14.7344 53.9375 18.2031 53.9375 22.2344ZM35.9375 22.6562C35.9375 20.6875 35.4688 19 34.5312 17.5938C33.5938 16.1562 32.4688 15.1719 31.1562 14.6406C29.5 13.9219 27.9062 13.5156 26.375 13.4219C24.875 13.2969 22.8281 13.2344 20.2344 13.2344H17.75V34.1406H18.9688C20.625 34.1406 22.1875 34.125 23.6562 34.0938C25.125 34.0625 26.4062 33.9531 27.5 33.7656C28.4375 33.6094 29.4219 33.3125 30.4531 32.875C31.5156 32.4062 32.3281 31.8906 32.8906 31.3281C34.0781 30.1719 34.875 28.9688 35.2812 27.7188C35.7188 26.4688 35.9375 24.7812 35.9375 22.6562ZM89.3281 71.4062C79.3906 71.4062 71.7656 69.0312 66.4531 64.2812C61.1719 59.5312 58.5312 52.7656 58.5312 43.9844C58.5312 35.3906 61 28.5312 65.9375 23.4062C70.875 18.2812 77.7812 15.7188 86.6562 15.7188C94.7188 15.7188 100.781 17.8906 104.844 22.2344C108.906 26.5781 110.938 32.7969 110.938 40.8906V46.7969H74.9844C75.1406 49.2344 75.6562 51.2812 76.5312 52.9375C77.4062 54.5625 78.5625 55.8594 80 56.8281C81.4062 57.7969 83.0469 58.5 84.9219 58.9375C86.7969 59.3438 88.8438 59.5469 91.0625 59.5469C92.9688 59.5469 94.8438 59.3438 96.6875 58.9375C98.5312 58.5 100.219 57.9375 101.75 57.25C103.094 56.6562 104.328 56.0156 105.453 55.3281C106.609 54.6406 107.547 54.0312 108.266 53.5H110V67.0469C108.656 67.5781 107.422 68.0781 106.297 68.5469C105.203 68.9844 103.688 69.4375 101.75 69.9062C99.9688 70.375 98.125 70.7344 96.2188 70.9844C94.3438 71.2656 92.0469 71.4062 89.3281 71.4062ZM94.7656 36.9062C94.6719 33.4375 93.8594 30.7969 92.3281 28.9844C90.8281 27.1719 88.5156 26.2656 85.3906 26.2656C82.2031 26.2656 79.7031 27.2188 77.8906 29.125C76.1094 31.0312 75.125 33.625 74.9375 36.9062H94.7656ZM154.719 32.875H153.359C152.734 32.6562 151.828 32.5 150.641 32.4062C149.453 32.2812 148.141 32.2188 146.703 32.2188C144.984 32.2188 143.172 32.4688 141.266 32.9688C139.391 33.4688 137.562 34.0625 135.781 34.75V70H119.375V17.3594H135.781V24.9062C136.531 24.2188 137.562 23.3594 138.875 22.3281C140.219 21.2656 141.438 20.4219 142.531 19.7969C143.719 19.0781 145.094 18.4688 146.656 17.9688C148.25 17.4375 149.75 17.1719 151.156 17.1719C151.688 17.1719 152.281 17.1875 152.938 17.2188C153.594 17.25 154.188 17.2969 154.719 17.3594V32.875ZM212.609 42.9531C212.609 51.3594 210.469 58.1406 206.188 63.2969C201.938 68.4531 196.688 71.0312 190.438 71.0312C187.812 71.0312 185.531 70.7344 183.594 70.1406C181.656 69.5469 179.594 68.625 177.406 67.375V89.3125H161V17.3594H177.406V22.8438C179.812 20.7812 182.266 19.1094 184.766 17.8281C187.266 16.5469 190.156 15.9062 193.438 15.9062C199.531 15.9062 204.25 18.3281 207.594 23.1719C210.938 28.0156 212.609 34.6094 212.609 42.9531ZM195.828 43.2812C195.828 38.1562 195.031 34.4375 193.438 32.125C191.875 29.8125 189.422 28.6562 186.078 28.6562C184.609 28.6562 183.141 28.8906 181.672 29.3594C180.234 29.8281 178.812 30.5312 177.406 31.4688V57.9531C178.281 58.3281 179.234 58.5938 180.266 58.75C181.328 58.9062 182.578 58.9844 184.016 58.9844C188.016 58.9844 190.984 57.6875 192.922 55.0938C194.859 52.4688 195.828 48.5312 195.828 43.2812Z" fill="white"/>
<path d="M293.703 70H276.266V23.7344L263.562 53.5938H251.609L238.906 23.7344V70H222.406V0.203125H242.609L258.078 34.6562L273.5 0.203125H293.703V70ZM336.266 56.2656V45.2969C333.484 45.5781 331.234 45.8281 329.516 46.0469C327.797 46.2344 326.109 46.625 324.453 47.2188C323.016 47.7188 321.891 48.4844 321.078 49.5156C320.297 50.5156 319.906 51.8594 319.906 53.5469C319.906 56.0156 320.562 57.7188 321.875 58.6562C323.219 59.5625 325.188 60.0156 327.781 60.0156C329.219 60.0156 330.688 59.6875 332.188 59.0312C333.688 58.375 335.047 57.4531 336.266 56.2656ZM336.266 64.4219C335.141 65.3594 334.125 66.2031 333.219 66.9531C332.344 67.7031 331.156 68.4531 329.656 69.2031C328.188 69.9219 326.75 70.4688 325.344 70.8438C323.969 71.2188 322.031 71.4062 319.531 71.4062C314.875 71.4062 311 69.8438 307.906 66.7188C304.844 63.5938 303.312 59.6562 303.312 54.9062C303.312 51 304.094 47.8438 305.656 45.4375C307.219 43.0312 309.469 41.125 312.406 39.7188C315.375 38.2812 318.922 37.2812 323.047 36.7188C327.172 36.1562 331.609 35.7188 336.359 35.4062V35.125C336.359 32.2188 335.281 30.2188 333.125 29.125C331 28 327.797 27.4375 323.516 27.4375C321.578 27.4375 319.312 27.7969 316.719 28.5156C314.125 29.2031 311.594 30.0938 309.125 31.1875H307.719V18.4844C309.344 18.0156 311.969 17.4688 315.594 16.8438C319.219 16.1875 322.875 15.8594 326.562 15.8594C335.625 15.8594 342.219 17.375 346.344 20.4062C350.5 23.4062 352.578 28 352.578 34.1875V70H336.266V64.4219ZM384.875 71.0312C378.188 71.0312 373.312 69.6562 370.25 66.9062C367.219 64.1562 365.703 59.6562 365.703 53.4062V28.7969H359.422V17.3594H365.703V2.3125H382.109V17.3594H397.906V28.7969H382.109V47.4531C382.109 49.2969 382.125 50.9062 382.156 52.2812C382.188 53.6562 382.438 54.8906 382.906 55.9844C383.344 57.0781 384.109 57.9531 385.203 58.6094C386.328 59.2344 387.953 59.5469 390.078 59.5469C390.953 59.5469 392.094 59.3594 393.5 58.9844C394.938 58.6094 395.938 58.2656 396.5 57.9531H397.906V69.5312C396.125 70 394.234 70.3594 392.234 70.6094C390.234 70.8906 387.781 71.0312 384.875 71.0312ZM431.609 71.4062C421.672 71.4062 414.047 69.0312 408.734 64.2812C403.453 59.5312 400.812 52.7656 400.812 43.9844C400.812 35.3906 403.281 28.5312 408.219 23.4062C413.156 18.2812 420.062 15.7188 428.938 15.7188C437 15.7188 443.062 17.8906 447.125 22.2344C451.188 26.5781 453.219 32.7969 453.219 40.8906V46.7969H417.266C417.422 49.2344 417.938 51.2812 418.812 52.9375C419.688 54.5625 420.844 55.8594 422.281 56.8281C423.688 57.7969 425.328 58.5 427.203 58.9375C429.078 59.3438 431.125 59.5469 433.344 59.5469C435.25 59.5469 437.125 59.3438 438.969 58.9375C440.812 58.5 442.5 57.9375 444.031 57.25C445.375 56.6562 446.609 56.0156 447.734 55.3281C448.891 54.6406 449.828 54.0312 450.547 53.5H452.281V67.0469C450.938 67.5781 449.703 68.0781 448.578 68.5469C447.484 68.9844 445.969 69.4375 444.031 69.9062C442.25 70.375 440.406 70.7344 438.5 70.9844C436.625 71.2656 434.328 71.4062 431.609 71.4062ZM437.047 36.9062C436.953 33.4375 436.141 30.7969 434.609 28.9844C433.109 27.1719 430.797 26.2656 427.672 26.2656C424.484 26.2656 421.984 27.2188 420.172 29.125C418.391 31.0312 417.406 33.625 417.219 36.9062H437.047Z" fill="#97FCE4"/>
</svg>
